<svg viewBox="0 0 32 32" xmlns="http://www.w3.org/2000/svg"><g data-name="Layer 19"><path d="M2 11.56h7.56c1.66 0 2.75 1.48 3.75 3.34.34-.67.7-1.38 1.1-2.07-1.13-1.83-2.59-3.27-4.85-3.27H2a1 1 0 0 0 0 2Z" fill="#94a3b8" class="fill-000000"></path><path d="M20.44 11.56h4.67v.67a1 1 0 0 0 1.5.87l2.89-1.67a1 1 0 0 0 0-1.73L26.61 8a1 1 0 0 0-1.5.87v.67h-4.67c-3.34 0-4.93 3.18-6.33 6-1.24 2.49-2.42 4.84-4.48 4.89H2a1 1 0 0 0 0 2h7.56c3.34 0 4.93-3.18 6.33-6 1.26-2.5 2.45-4.87 4.55-4.87Z" fill="#94a3b8" class="fill-000000"></path><path d="m29.5 20.57-2.89-1.67a1 1 0 0 0-1.5.87v.67h-4.73c-1.63 0-2.7-1.5-3.69-3.34-.34.67-.7 1.38-1.1 2.07 1.13 1.81 2.59 3.27 4.85 3.27h4.67v.66a1 1 0 0 0 1.5.87l2.89-1.67a1 1 0 0 0 0-1.73Z" fill="#94a3b8" class="fill-000000"></path></g></svg>